# xmcd CD database file
#
# Track frame offsets:
#	150
#	12961
#	33733
#	47851
#	63438
#	75479
#	93169
#	108812
#	118261
#	136520
#
# Disc length: 2018 seconds
#
# Revision: 0
# Processed by: cddbd v1.5.1PL2 Copyright (c) Steve Scherf et al.
# Submitted via: CDex 1.51
#
DISCID=7707e00a
DTITLE=Théo Bertin - 25 ans d'amour
DYEAR=1900
DGENRE=Country
TTITLE0=Le chauffeur d'autobus
TTITLE1=25 ans d'amour
TTITLE2=femme
TTITLE3=veux-tu ben m'dire
TTITLE4=ma musique
TTITLE5=Acapulco
TTITLE6=terre promise
TTITLE7=ma belle Angèle
TTITLE8=j'ai tant besoin de toi
TTITLE9=ma belle Acadie
EXTD=
EXTT0=
EXTT1=
EXTT2=
EXTT3=
EXTT4=
EXTT5=
EXTT6=
EXTT7=
EXTT8=
EXTT9=
PLAYORDER=
